<!-- EDITED BY: ESSTX https://steamcommunity.com/id/esstx/ --><svg xmlns="http://www.w3.org/2000/svg" xml:space="preserve" viewBox="0 0 512 512"><path d="M264.1 502.5c-43.9 0-84.2-14.7-110.2-36.8-13.3 3.9-30.2 10.2-40.7 18.2-9.1 6.7-8.1 13.7-6.3 16.5 7.4 12.3 123.8 7.7 157.5 3.9v-1.8h-.3zm0 0c43.9 0 84.2-14.7 110.2-36.8 13.3 3.9 30.2 10.2 40.7 18.2 9.1 6.7 8.1 13.7 6.3 16.5-7.4 12.3-123.8 7.7-157.5 3.9v-1.8h.3zM263.9 3.6c-112.6 0-158.2 97.5-158.2 194.4 0 5.6.4 16.8.4 17.5 0 0 2.1 2.1 5.6 3.2 18.2 4.9 77.5 20 151.9 20.3h.7c72.6-.4 130.9-14.4 150.5-20 4.6-1.4 7.4-3.5 7.4-3.5 0-.7.4-11.9.4-17.5-.5-97.2-46.4-194.4-158.7-194.4zm13.7 101.8c.7-22.1 14-39.6 29.1-38.9 15.4.7 27 19.3 26 41.4-.7 22.1-14 39.6-29.1 38.9-15.1-.7-26.7-19.3-26-41.4zm-56.9-38.6c15.1-.7 28.4 16.8 29.1 38.9.7 22.1-10.9 40.7-26 41.4-15.4.7-28.4-16.8-29.1-38.9-1-22.5 10.6-40.7 26-41.4zm139 114.3c-3.5 4.9-49.1 29.5-95.8 29.5h-.7c-46.7 0-92.3-24.9-95.8-29.8-.4-.4-.7-1.1-.7-1.8 0-.4 0-1.1.4-1.4 4.2-9.1 45.3-18.9 96.1-18.9h.7c50.9 0 91.9 10.2 96.1 18.9.4.4.4.7.4 1.4s-.4 1.4-.7 2.1z"/><path d="M236.2 108.2c.7 8.8-4.2 16.5-10.5 17.2-6.7.7-12.6-5.6-13.3-14.4-.7-8.8 4.2-16.5 10.5-17.2 6.6-.7 12.6 5.6 13.3 14.4m41.8 3.1c1.4-2.5 10.5-15.1 29.5-10.5 4.9 1.1 7.4 3.2 7.7 3.9.7 1.1 1.1 2.5.4 4.6-1.4 3.9-4.6 3.9-6 3.2-1.1-.4-14.4-9.5-26.7 3.9-.7 1.1-2.5 1.1-3.9 0-1-1.6-1.8-3.7-1-5.1M461.2 319.7c-4.6-14.4-10.5-31.2-16.8-47.7 0 0-3.5-.4-5.3 0-17.5 5.3-36.5 9.8-55.8 13.3 3.2 20 4.9 44.6 3.5 73.7-4.6 77.2-50.5 125.9-121.4 126.7h-2.8c-70.8-.7-116.8-49.5-121.4-126.7-1.8-29.1 0-53.7 3.5-73.7-18.9-3.9-37.5-8.1-54.7-13.3-2.1-.7-6.3-.4-6.3-.4-6.3 16.1-12.3 33-16.8 47.7-21.4 69.1-14.4 97.5-9.1 98.2 11.2 1.4 44.2-51.9 44.2-51.9 0 54.4 49.1 137.5 161 138.2h2.8c112.3-.7 161-84.2 161-138.2 0 0 33 53.3 44.2 51.9 4.6-.2 11.6-28.7-9.8-97.8z"/><path d="M229.2 288.5v76.1s34.7 7 69.8 2.1v-70.2c-22.5-1-46.3-3.8-69.8-8"/><path d="M422.7 215.5s-67.7 21.4-157.9 22.1h-.7c-89.8-.7-157.5-22.1-157.9-22.1l-22.8 56.8c56.8 17.2 127.4 28.1 180.3 27.4h.7c53.3.7 123.5-10.5 180.3-27.4l-22-56.8z"/></svg>