<!-- ничего не менял в лого ._. --><svg xmlns="http://www.w3.org/2000/svg" xml:space="preserve" viewBox="0 0 512 512"><path fill-rule="evenodd" d="M35.8 35.8C0 71.7 0 129.5 0 245.8v20.5C0 382 0 439.8 35.8 476.2c35.9 35.8 93.7 35.8 210 35.8h20.5c115.7 0 173.6 0 209.9-35.8 35.8-35.9 35.8-93.7 35.8-210v-20.5c0-115.7 0-173.6-35.8-209.9C440.3 0 382.5 0 266.2 0h-20.5C130 0 72.2 0 35.8 35.8zm50.7 119.8c2.6 133.1 69.1 213 185.9 213h6.7v-75.8c43 4.1 75.3 35.8 88.1 76.3h60.4c-16.4-60.4-60.4-94.2-87.6-107 27.1-15.9 65.5-54.3 74.8-106H360c-11.8 42-47.1 80.4-80.9 84.5v-85h-55.3v147.5c-34.3-8.7-77.3-49.7-79.4-147.5H86.5z" clip-rule="evenodd"/></svg>